<svg xmlns="http://www.w3.org/2000/svg" viewBox="0 0 21 14.55"><path d="M20.5,0H.5A.5.5,0,0,0,0,.5V14.05a.5.5,0,0,0,.5.5h20a.5.5,0,0,0,.5-.5V.5A.5.5,0,0,0,20.5,0ZM1,1H20V11.13H1ZM20,13.55H1V12.13H20ZM5.61,2.08H3.36A.92.92,0,0,0,2.42,3V4.4a.92.92,0,0,0,.94.93H5.61a.93.93,0,0,0,.93-.93V3A.91.91,0,0,0,5.61,2.08ZM5.54,4.33H3.42V3.08H5.54Zm6.09-2.25H9.37A.91.91,0,0,0,8.44,3V4.4a.91.91,0,0,0,.93.93h2.26a.93.93,0,0,0,.93-.93V3A.91.91,0,0,0,11.63,2.08Zm-.07,2.25H9.44V3.08h2.12Zm6.13-2.25H15.43A.91.91,0,0,0,14.5,3V4.4a.91.91,0,0,0,.93.93h2.26a.93.93,0,0,0,.93-.93V3A.91.91,0,0,0,17.69,2.08Zm-.07,2.25H15.5V3.08h2.12Zm-12,2.16H3.36a.92.92,0,0,0-.94.94V8.81a.92.92,0,0,0,.94.93H5.61a.93.93,0,0,0,.93-.93V7.43A.91.91,0,0,0,5.61,6.49ZM5.54,8.74H3.42V7.49H5.54Zm6.09-2.25H9.37a.91.91,0,0,0-.93.94V8.81a.91.91,0,0,0,.93.93h2.26a.93.93,0,0,0,.93-.93V7.43A.91.91,0,0,0,11.63,6.49Zm-.07,2.25H9.44V7.49h2.12Zm6.13-2.25H15.43a.91.91,0,0,0-.93.94V8.81a.91.91,0,0,0,.93.93h2.26a.93.93,0,0,0,.93-.93V7.43A.91.91,0,0,0,17.69,6.49Zm-.07,2.25H15.5V7.49h2.12Z"/></svg>