<svg xmlns="http://www.w3.org/2000/svg" viewBox="0 0 21 19.1"><path d="M20.5,0H.5A.5.5,0,0,0,0,.5V14.31a.5.5,0,0,0,.5.5h20a.5.5,0,0,0,.5-.5V.5A.5.5,0,0,0,20.5,0ZM20,13.81H1V1H20ZM8.7,11.2a.79.79,0,0,0,.37-.1l4.69-3.2A.77.77,0,0,0,14,7.28a.59.59,0,0,0-.28-.43L9.07,3.71,9,3.67a.67.67,0,0,0-.72.08.61.61,0,0,0-.19.57v6.23a.59.59,0,0,0,.6.65Zm.4-6.27L12.73,7.4,9.1,9.88ZM6.24,17.17a.51.51,0,0,1-.5.5H.5a.5.5,0,0,1-.5-.5.5.5,0,0,1,.5-.5H5.74A.5.5,0,0,1,6.24,17.17Zm14.76,0a.5.5,0,0,1-.5.5H9.55a.5.5,0,0,1-.5-.5.5.5,0,0,1,.5-.5h11A.5.5,0,0,1,21,17.17ZM8.14,15.74V18.6a.5.5,0,0,1-.5.5.51.51,0,0,1-.5-.5V15.74a.5.5,0,0,1,.5-.5A.5.5,0,0,1,8.14,15.74Z"/></svg>