<svg xmlns="http://www.w3.org/2000/svg" viewBox="0 0 10.5 10.46"><path d="M10.5,1.87A1.84,1.84,0,0,0,9.94.54a1.92,1.92,0,0,0-2.67,0l-.6.6h0L1,6.8a.41.41,0,0,0-.07.11l-.9,3a.46.46,0,0,0,.12.46.51.51,0,0,0,.33.13l.14,0,2.94-.88a.24.24,0,0,0,.11-.06l.44-.44h0L5.86,7.3,9.34,3.82h0l.6-.62A1.83,1.83,0,0,0,10.5,1.87ZM2.19,9.47,1.11,8.4a.21.21,0,0,0-.11,0l.35-1.13.78-.08v0l-.05.74a.47.47,0,0,0,.5.48h0l.71-.08h0l-.06.82ZM8.78,3.66,8.46,4,6.9,2.42h0L6.5,2l.32-.32ZM2.62,7.06,6.71,3l.22.22L2.62,7.49l0-.33A.36.36,0,0,0,2.62,7.06ZM6,2.53l.14-.14.22.23L2.27,6.71a.5.5,0,0,0-.13,0h0l-.33,0Zm1.3,1,.22.22L3.41,7.86l-.11,0h0l-.37,0ZM3.78,8.67l0-.35a.5.5,0,0,0,0-.12L7.87,4.13l.22.22L4.44,8ZM.5,10,.85,8.85l.8.79ZM9.16,3.28l-2-2L7.62.9a1.4,1.4,0,0,1,2,0h0a1.34,1.34,0,0,1,0,1.94Z"/></svg>