<svg xmlns="http://www.w3.org/2000/svg" viewBox="0 0 21 20.78"><path d="M17.5,16.32,13.6,13.8a.5.5,0,0,0-.62.06,4.29,4.29,0,0,1-3.06,1.27,4.21,4.21,0,0,1-2.86-1.08A4,4,0,0,1,6,12.5a3.94,3.94,0,0,1-.35-1.65A4.36,4.36,0,0,1,9.17,6.61a.49.49,0,0,0,.41-.51L9.45,1.5a.46.46,0,0,0-.17-.36A.51.51,0,0,0,8.9,1,9.87,9.87,0,0,0,0,10.85,9.76,9.76,0,0,0,.94,15.1a9.92,9.92,0,0,0,.66,1.18s0,0,0,.06l.06.05a9.09,9.09,0,0,0,.55.75,9.88,9.88,0,0,0,15.39-.09.5.5,0,0,0-.12-.73Zm-9-14.23.1,3.63a5.38,5.38,0,0,0-4,5.13A4.8,4.8,0,0,0,5,12.9a4.41,4.41,0,0,0,.28.58L2.23,15.37c-.13-.22-.26-.44-.39-.7A8.92,8.92,0,0,1,8.47,2.09ZM9.88,19.78A8.78,8.78,0,0,1,3,16.5a3.15,3.15,0,0,1-.22-.29L5.9,14.3a3.51,3.51,0,0,0,.51.51,5.34,5.34,0,0,0,7,0l3.09,2A8.85,8.85,0,0,1,9.88,19.78ZM11.26,0a.51.51,0,0,0-.38.12.46.46,0,0,0-.17.36l-.18,5.09a.5.5,0,0,0,.41.51,4.82,4.82,0,0,1,4,4.73,4.9,4.9,0,0,1-.37,1.89.51.51,0,0,0,.23.63l4.34,2.34a.51.51,0,0,0,.3.06h.07a.5.5,0,0,0,.45-.28A10.91,10.91,0,0,0,11.26,0Zm8,14.59-3.59-1.94A5.63,5.63,0,0,0,16,10.81a5.8,5.8,0,0,0-4.42-5.62l.15-4.12a9.89,9.89,0,0,1,7.57,13.52Z"/></svg>