<svg xmlns="http://www.w3.org/2000/svg" viewBox="0 0 19.85 19.92"><path d="M19.39,17.07l-5.51-5.54A7.59,7.59,0,0,0,7.49,0,7.55,7.55,0,0,0,0,7.59a7.54,7.54,0,0,0,7.49,7.58,7.39,7.39,0,0,0,4.09-1.24L17,19.45a1.5,1.5,0,0,0,2.18,0l.19-.18A1.56,1.56,0,0,0,19.39,17.07ZM1,7.59A6.54,6.54,0,0,1,7.49,1,6.54,6.54,0,0,1,14,7.59a6.54,6.54,0,0,1-6.49,6.58A6.54,6.54,0,0,1,1,7.59Zm17.68,11-.18.19a.54.54,0,0,1-.76,0l-5.33-5.4A4.59,4.59,0,0,0,12.8,13a4.25,4.25,0,0,0,.55-.57l5.33,5.36A.54.54,0,0,1,18.68,18.56Zm-8.25-11a.5.5,0,0,1-.5.5H7.67v2.29a.5.5,0,0,1-1,0V8.09H4.41a.5.5,0,0,1-.5-.5.5.5,0,0,1,.5-.5H6.67V4.79a.5.5,0,0,1,1,0v2.3H9.93A.5.5,0,0,1,10.43,7.59Z"/></svg>