<svg xmlns="http://www.w3.org/2000/svg" viewBox="0 0 14.68 21"><path d="M10.06,11,7,13.71a.5.5,0,0,0,.33.87.46.46,0,0,0,.33-.13l3.95-3.52,0,0h0s0-.05,0-.07a.22.22,0,0,0,.05-.08.29.29,0,0,0,0-.09.38.38,0,0,0,0-.1.28.28,0,0,0,0-.09.29.29,0,0,0,0-.09.41.41,0,0,0-.05-.09l0-.06,0,0,0,0L7.68,6.65a.51.51,0,0,0-.71,0A.5.5,0,0,0,7,7.4L9.92,10H.5a.5.5,0,0,0,0,1H10Zm.48-.43-.09.08a.51.51,0,0,0,0-.13h0ZM14.68,5.5v10A5.5,5.5,0,0,1,9.18,21H3.66a.5.5,0,0,1,0-1H9.18a4.5,4.5,0,0,0,4.5-4.5V5.5A4.5,4.5,0,0,0,9.18,1H3.66a.5.5,0,0,1-.5-.5.5.5,0,0,1,.5-.5H9.18A5.5,5.5,0,0,1,14.68,5.5Z"/></svg>