<svg xmlns="http://www.w3.org/2000/svg" viewBox="0 0 21 23.26"><path d="M18.38,13.37a2.6,2.6,0,0,0-2.08,1.05L13.72,13A3.27,3.27,0,0,0,14,11.75a3.35,3.35,0,0,0-.21-1.15l2.71-1.54a2.61,2.61,0,1,0-.71-1.78,2.71,2.71,0,0,0,.18.94l-2.66,1.5A3.34,3.34,0,0,0,11,8.41V5.18a2.62,2.62,0,1,0-1,0V8.43A3.33,3.33,0,0,0,7.84,9.8l0,0L5.05,8.22a2.71,2.71,0,0,0,.18-.94,2.63,2.63,0,1,0-.71,1.78l2.8,1.59.08,0a3.5,3.5,0,0,0-.19,1.08A3.46,3.46,0,0,0,7.44,13L4.7,14.42a2.58,2.58,0,0,0-2.08-1.06A2.62,2.62,0,1,0,5.23,16a2.84,2.84,0,0,0-.09-.66h0l2.78-1.49A3.35,3.35,0,0,0,10,15.08a.24.24,0,0,0,0,.08v2.92a2.62,2.62,0,1,0,1,0V15.16s0,0,0-.07a3.34,3.34,0,0,0,2.21-1.2l2.64,1.42h0a2.84,2.84,0,0,0-.09.66,2.62,2.62,0,1,0,2.61-2.61Zm0-7.71a1.62,1.62,0,1,1-1.61,1.62A1.62,1.62,0,0,1,18.38,5.66ZM2.62,8.89A1.62,1.62,0,1,1,4.23,7.28,1.61,1.61,0,0,1,2.62,8.89Zm0,8.71A1.62,1.62,0,1,1,4.23,16,1.62,1.62,0,0,1,2.62,17.6Zm6.26-15A1.62,1.62,0,1,1,10.5,4.23,1.62,1.62,0,0,1,8.88,2.62Zm3.24,18A1.62,1.62,0,1,1,10.5,19,1.63,1.63,0,0,1,12.12,20.64ZM10.6,14.13A2.38,2.38,0,1,1,13,11.75,2.32,2.32,0,0,1,12.63,13l0,0a.06.06,0,0,0,0,0A2.37,2.37,0,0,1,10.6,14.13Zm7.78,3.47A1.62,1.62,0,1,1,20,16,1.62,1.62,0,0,1,18.38,17.6Z"/></svg>