<svg xmlns="http://www.w3.org/2000/svg" viewBox="0 0 21 18.67"><path d="M20.5,17.67H18.67V6.05a1.76,1.76,0,1,0-2.21-1.69,1.72,1.72,0,0,0,.42,1.12.37.37,0,0,0-.13.12l-2.15,3a1.75,1.75,0,0,0-2.26.26L10.16,8V7.94a1.76,1.76,0,0,0-3.51,0,1.77,1.77,0,0,0,.25.88L4.43,11.55a1.72,1.72,0,0,0-.72-.15,1.75,1.75,0,0,0-1.45,2.74v0L1,16.32V.5A.5.5,0,0,0,.5,0,.5.5,0,0,0,0,.5V18.17s0,0,0,.06,0,.07,0,.11,0,.05,0,.08l.06.08a.46.46,0,0,1,.07.07l0,0h0a.46.46,0,0,0,.23.06h20a.5.5,0,0,0,.5-.5A.5.5,0,0,0,20.5,17.67ZM18.22,3.6a.76.76,0,1,1-.76.76A.76.76,0,0,1,18.22,3.6Zm-.66,2.59A.71.71,0,0,0,17.64,6h.05a.14.14,0,0,0,0,.06V17.67H14V11.74A1.77,1.77,0,0,0,15.37,10a1.64,1.64,0,0,0-.12-.63ZM13.62,9.28a.75.75,0,0,1,.55.25.46.46,0,0,0,.15.22.92.92,0,0,1,0,.28.75.75,0,0,1-.61.73.48.48,0,0,0-.24-.06l-.18,0a.75.75,0,0,1,.28-1.45Zm-1.73.46a1.43,1.43,0,0,0,0,.29A1.76,1.76,0,0,0,13,11.68v6H8.91V9.62A1.8,1.8,0,0,0,9.84,9ZM4.26,14.81a1.74,1.74,0,0,0,.93-2.6l2.44-2.7.28.11v8.05H4.26ZM8.41,7.19a.75.75,0,0,1,.75.75.8.8,0,0,1,0,.15l0,.05a.51.51,0,0,0,0,.13.76.76,0,0,1-.67.43A.74.74,0,0,1,8,8.54l-.06-.09-.08,0a.72.72,0,0,1-.18-.47A.75.75,0,0,1,8.41,7.19ZM3.71,12.4a.71.71,0,0,1,.41.13l0,.06.11.07a.72.72,0,0,1,.2.49.76.76,0,0,1-1.52,0A.75.75,0,0,1,3.71,12.4Zm-.66,2.38.21.06v2.83H1.37Z"/></svg>