<svg xmlns="http://www.w3.org/2000/svg" viewBox="0 0 21 21.1"><path d="M13.18,8.08a2.8,2.8,0,1,0-2.8,2.8A2.81,2.81,0,0,0,13.18,8.08Zm-4.6,0a1.8,1.8,0,1,1,1.8,1.8A1.81,1.81,0,0,1,8.58,8.08Zm5.27,8.11c.39-.47.76-1,1.09-1.42.91-1.29,3-4.57,3-7.18a7.59,7.59,0,0,0-15.18,0c0,2.45,2,6.12,4,8.62C4.2,16.42,0,17,0,18.59c0,2.48,10.09,2.51,10.52,2.51S21,21.07,21,18.59C21,16.91,16.33,16.36,13.85,16.19ZM10.38,1A6.6,6.6,0,0,1,17,7.59C17,11.42,11.53,18,10.38,18,9,18,3.79,11.47,3.79,7.59A6.6,6.6,0,0,1,10.38,1Zm.14,19.1c-5.94,0-9.31-1-9.52-1.49.12-.34,2-1.17,6.64-1.46,1,1.09,2,1.8,2.74,1.8s1.67-.78,2.63-1.8c4.61.22,6.83,1.06,7,1.42C19.8,19.12,16.45,20.1,10.52,20.1Z"/></svg>